<svg width="340" height="228" viewBox="0 0 340 228" fill="none" xmlns="http://www.w3.org/2000/svg">
<rect x="2.00284" y="114" width="158" height="158" transform="rotate(-45 2.00284 114)" stroke="#1C1B1B" stroke-width="2"/>
<rect x="113.726" y="114" width="160" height="160" transform="rotate(-45 113.726 114)" fill="#12EBCA"/>
<path d="M175.779 133.784C172.83 133.784 170.216 133.261 167.939 132.216C165.662 131.17 163.87 129.64 162.563 127.624C161.294 125.57 160.659 123.088 160.659 120.176V118.776H166.651V120.176C166.651 122.938 167.472 125.01 169.115 126.392C170.795 127.773 173.016 128.464 175.779 128.464C178.579 128.464 180.688 127.885 182.107 126.728C183.526 125.533 184.235 124.002 184.235 122.136C184.235 120.904 183.899 119.896 183.227 119.112C182.592 118.328 181.659 117.712 180.427 117.264C179.195 116.778 177.72 116.33 176.003 115.92L173.931 115.416C171.43 114.818 169.264 114.09 167.435 113.232C165.606 112.336 164.187 111.16 163.179 109.704C162.171 108.248 161.667 106.381 161.667 104.104C161.667 101.789 162.227 99.8102 163.347 98.1675C164.467 96.5248 166.035 95.2555 168.051 94.3595C170.067 93.4635 172.438 93.0155 175.163 93.0155C177.888 93.0155 180.315 93.4822 182.443 94.4155C184.608 95.3488 186.307 96.7302 187.539 98.5595C188.808 100.389 189.443 102.685 189.443 105.448V107.464H183.451V105.448C183.451 103.768 183.096 102.405 182.387 101.36C181.715 100.314 180.744 99.5488 179.475 99.0635C178.243 98.5782 176.806 98.3355 175.163 98.3355C172.774 98.3355 170.926 98.8395 169.619 99.8475C168.312 100.818 167.659 102.181 167.659 103.936C167.659 105.13 167.939 106.12 168.499 106.904C169.096 107.65 169.955 108.266 171.075 108.752C172.195 109.237 173.576 109.666 175.219 110.04L177.291 110.544C179.83 111.104 182.07 111.832 184.011 112.728C185.952 113.586 187.464 114.762 188.547 116.256C189.667 117.749 190.227 119.672 190.227 122.024C190.227 124.376 189.63 126.429 188.435 128.184C187.278 129.938 185.616 131.32 183.451 132.328C181.286 133.298 178.728 133.784 175.779 133.784ZM172.979 139.496V87.3035H178.523V139.496H172.979ZM207.384 133.784C204.36 133.784 201.709 133.336 199.432 132.44C197.192 131.544 195.437 130.256 194.168 128.576C192.936 126.858 192.32 124.861 192.32 122.584V121.968C192.32 120.101 192.675 118.57 193.384 117.376C194.131 116.144 195.027 115.192 196.072 114.52C197.155 113.81 198.163 113.344 199.096 113.12V112.224C198.163 111.962 197.211 111.496 196.24 110.824C195.269 110.114 194.467 109.2 193.832 108.08C193.235 106.922 192.936 105.541 192.936 103.936V103.32C192.936 101.229 193.533 99.4182 194.728 97.8875C195.96 96.3568 197.659 95.1622 199.824 94.3035C201.989 93.4448 204.509 93.0155 207.384 93.0155C210.221 93.0155 212.723 93.4448 214.888 94.3035C217.053 95.1622 218.733 96.3568 219.928 97.8875C221.16 99.4182 221.776 101.229 221.776 103.32V103.936C221.776 105.541 221.459 106.922 220.824 108.08C220.227 109.2 219.461 110.114 218.528 110.824C217.595 111.496 216.643 111.962 215.672 112.224V113.12C216.643 113.344 217.651 113.81 218.696 114.52C219.741 115.192 220.619 116.144 221.328 117.376C222.037 118.57 222.392 120.101 222.392 121.968V122.584C222.392 124.861 221.757 126.858 220.488 128.576C219.256 130.256 217.501 131.544 215.224 132.44C212.984 133.336 210.371 133.784 207.384 133.784ZM207.384 128.52C210.221 128.52 212.443 127.978 214.048 126.896C215.691 125.776 216.512 124.226 216.512 122.248V121.8C216.512 119.784 215.709 118.234 214.104 117.152C212.536 116.032 210.296 115.472 207.384 115.472C204.472 115.472 202.213 116.032 200.608 117.152C199.003 118.234 198.2 119.784 198.2 121.8V122.248C198.2 124.226 199.003 125.776 200.608 126.896C202.251 127.978 204.509 128.52 207.384 128.52ZM207.384 110.208C210.035 110.208 212.107 109.704 213.6 108.696C215.131 107.688 215.896 106.269 215.896 104.44V103.992C215.896 102.162 215.131 100.762 213.6 99.7915C212.069 98.7835 209.997 98.2795 207.384 98.2795C204.733 98.2795 202.643 98.7835 201.112 99.7915C199.581 100.762 198.816 102.162 198.816 103.992V104.44C198.816 106.269 199.563 107.688 201.056 108.696C202.587 109.704 204.696 110.208 207.384 110.208ZM240.274 133.784C235.72 133.784 232.08 132.496 229.354 129.92C226.666 127.306 225.322 123.386 225.322 118.16V108.64C225.322 103.525 226.666 99.6422 229.354 96.9915C232.08 94.3408 235.72 93.0155 240.274 93.0155C244.866 93.0155 248.506 94.3408 251.194 96.9915C253.92 99.6422 255.282 103.525 255.282 108.64V118.16C255.282 123.386 253.92 127.306 251.194 129.92C248.506 132.496 244.866 133.784 240.274 133.784ZM240.274 128.52C243.373 128.52 245.669 127.642 247.162 125.888C248.656 124.096 249.402 121.594 249.402 118.384V108.304C249.402 105.093 248.6 102.629 246.994 100.912C245.389 99.1568 243.149 98.2795 240.274 98.2795C237.362 98.2795 235.122 99.1755 233.554 100.968C231.986 102.722 231.202 105.168 231.202 108.304V118.384C231.202 121.669 231.949 124.189 233.442 125.944C234.973 127.661 237.25 128.52 240.274 128.52ZM260.184 133V93.7995H266.232V110.096H267.128L281.744 93.7995H289.64L271.944 113.12L290.256 133H282.136L267.128 116.368H266.232V133H260.184Z" fill="#1C1B1B"/>
<path d="M66.6667 143.644C65.7163 144.594 64.6406 145.247 63.4395 145.604C62.2383 145.934 60.9976 145.921 59.7173 145.564C58.4369 145.181 57.2028 144.396 56.0148 143.208L52.6886 139.882C50.9067 138.1 50.0421 136.232 50.0949 134.279C50.1345 132.312 51.0123 130.471 52.7282 128.755C54.4309 127.052 56.1996 126.194 58.0343 126.181C59.869 126.141 61.5586 126.894 63.1029 128.438L63.1821 128.517L60.6082 131.091L60.4498 130.933C59.9614 130.444 59.4137 130.108 58.8065 129.923C58.2125 129.725 57.5988 129.718 56.9652 129.903C56.3184 130.075 55.6849 130.471 55.0645 131.091C54.1405 132.015 53.6984 133.025 53.738 134.12C53.7776 135.216 54.2857 136.252 55.2625 137.229L58.6679 140.634C59.6315 141.598 60.6742 142.113 61.7961 142.179C62.9049 142.231 63.9344 141.783 64.8848 140.832C65.8351 139.882 66.2773 138.938 66.2113 138.001C66.1453 137.064 65.7295 136.213 64.964 135.447L64.766 135.249L61.4794 138.536L59.2619 136.318L65.1224 130.458L72.2104 137.546L69.7949 139.961L68.4684 138.635L68.112 138.991C68.244 139.308 68.3298 139.697 68.3694 140.159C68.4222 140.608 68.3298 141.123 68.0922 141.703C67.8546 142.284 67.3795 142.931 66.6667 143.644ZM79.3402 130.97C78.3635 131.947 77.2943 132.607 76.1328 132.95C74.9712 133.267 73.8031 133.26 72.6284 132.93C71.4536 132.574 70.3515 131.881 69.3219 130.851L69.0843 130.614C68.0548 129.584 67.3684 128.489 67.0252 127.327C66.6689 126.152 66.6557 124.991 66.9856 123.843C67.3024 122.681 67.9492 121.612 68.9259 120.635C69.8895 119.672 70.9454 119.051 72.0938 118.774C73.2289 118.484 74.3773 118.523 75.5388 118.893C76.6872 119.249 77.7629 119.929 78.766 120.932L79.6174 121.784L72.47 128.931C73.1695 129.578 73.9681 129.875 74.8656 129.822C75.7632 129.769 76.5552 129.4 77.2415 128.713C77.9411 128.014 78.3041 127.347 78.3305 126.713C78.3569 126.08 78.2711 125.493 78.0731 124.951L81.1815 123.981C81.3399 124.509 81.4455 125.156 81.4983 125.921C81.5511 126.661 81.4323 127.466 81.1419 128.337C80.8383 129.195 80.2378 130.073 79.3402 130.97ZM70.6287 127.05L75.222 122.457C74.6017 121.942 73.9153 121.718 73.1629 121.784C72.4238 121.836 71.7308 122.186 71.084 122.833C70.4109 123.506 70.0479 124.212 69.9951 124.951C69.9423 125.691 70.1535 126.39 70.6287 127.05ZM89.2699 120.486C88.6231 121.133 87.8971 121.463 87.092 121.476C86.2868 121.463 85.5477 121.12 84.8745 120.447L79.3308 114.903L76.8757 117.358L74.8166 115.299L77.2717 112.844L74.2226 109.795L76.7173 107.3L79.7664 110.349L82.459 107.656L84.5181 109.716L81.8255 112.408L86.9336 117.516C87.3296 117.912 87.7124 117.926 88.0819 117.556L89.9826 115.655L92.0417 117.714L89.2699 120.486ZM103.069 107.004C102.303 107.769 101.459 108.271 100.535 108.509C99.6108 108.72 98.6802 108.674 97.7431 108.37C96.8059 108.066 95.9348 107.512 95.1296 106.707L89.2691 100.846L91.7638 98.3517L97.4263 104.014C98.1654 104.753 98.898 105.13 99.624 105.143C100.363 105.143 101.069 104.806 101.742 104.133C102.508 103.367 102.851 102.523 102.772 101.599C102.68 100.662 102.178 99.7376 101.267 98.8269L96.2779 93.8375L98.7726 91.3429L108.593 101.163L106.138 103.618L104.851 102.331L104.495 102.688C104.666 103.176 104.693 103.796 104.574 104.549C104.455 105.301 103.953 106.12 103.069 107.004ZM115.131 102.545L101.351 88.7648L103.806 86.3097L104.994 87.4977L105.35 87.1413C105.192 86.5341 105.205 85.8478 105.39 85.0822C105.561 84.3035 106.089 83.4719 106.974 82.5875C107.766 81.7956 108.696 81.261 109.765 80.9838C110.821 80.6934 111.93 80.7198 113.091 81.063C114.253 81.4062 115.368 82.1124 116.437 83.1815L116.754 83.4983C117.823 84.5674 118.53 85.6828 118.873 86.8443C119.216 88.0059 119.249 89.1212 118.972 90.1904C118.681 91.2463 118.14 92.1702 117.348 92.9622C116.754 93.5562 116.18 93.9852 115.626 94.2491C115.098 94.5131 114.603 94.6649 114.141 94.7045C113.679 94.7177 113.263 94.6847 112.893 94.6055L112.537 94.9619L117.625 100.05L115.131 102.545ZM114.418 91.5367C115.197 90.7579 115.593 89.8736 115.606 88.8836C115.619 87.8673 115.151 86.8839 114.2 85.9336L114.002 85.7356C113.052 84.7852 112.075 84.3233 111.072 84.3496C110.056 84.3628 109.165 84.7522 108.399 85.5178C107.634 86.2834 107.244 87.1743 107.231 88.1907C107.205 89.1938 107.667 90.1706 108.617 91.1209L108.815 91.3189C109.765 92.2692 110.749 92.7378 111.765 92.7246C112.768 92.6982 113.652 92.3022 114.418 91.5367ZM132.19 77.5665C131.543 78.2132 130.817 78.5432 130.012 78.5564C129.207 78.5432 128.467 78.2001 127.794 77.5269L122.251 71.9832L119.795 74.4382L117.736 72.3791L120.191 69.9241L117.142 66.875L119.637 64.3804L122.686 67.4294L125.379 64.7367L127.438 66.7958L124.745 69.4885L129.853 74.5966C130.249 74.9926 130.632 75.0058 131.002 74.6362L132.902 72.7355L134.961 74.7946L132.19 77.5665ZM141.861 68.4495C140.884 69.4263 139.808 70.106 138.634 70.4888C137.459 70.8716 136.271 70.9112 135.07 70.6076C133.869 70.304 132.74 69.6243 131.684 68.5683L131.367 68.2515C130.312 67.1956 129.632 66.067 129.328 64.8659C129.025 63.6648 129.064 62.4768 129.447 61.3021C129.83 60.1273 130.51 59.0516 131.486 58.0748C132.463 57.0981 133.539 56.4183 134.714 56.0355C135.888 55.6528 137.076 55.6132 138.277 55.9168C139.478 56.2203 140.607 56.9001 141.663 57.956L141.98 58.2728C143.036 59.3288 143.715 60.4573 144.019 61.6585C144.323 62.8596 144.283 64.0475 143.9 65.2223C143.517 66.397 142.838 67.4728 141.861 68.4495ZM139.643 66.232C140.409 65.4665 140.798 64.5887 140.812 63.5988C140.812 62.5956 140.35 61.6321 139.426 60.7081L139.228 60.5101C138.304 59.5862 137.347 59.1308 136.357 59.144C135.367 59.1308 134.483 59.5136 133.704 60.2923C132.938 61.0579 132.555 61.9422 132.555 62.9454C132.542 63.9353 132.998 64.8923 133.922 65.8162L134.12 66.0142C135.043 66.9382 136.007 67.4002 137.01 67.4002C138 67.387 138.878 66.9976 139.643 66.232Z" fill="#1C1B1B"/>
</svg>
