<svg width="793" height="264" viewBox="0 0 793 264" fill="none" xmlns="http://www.w3.org/2000/svg">
<rect x="646.767" y="136" width="102" height="102" transform="rotate(-45 646.767 136)" stroke="#453F3F" stroke-width="2"/>
<rect x="646.767" y="136" width="102" height="102" transform="rotate(-45 646.767 136)" stroke="black" stroke-opacity="0.2" stroke-width="2"/>
<path d="M676.596 145.239C675.471 145.239 674.468 145.045 673.588 144.659C672.713 144.273 672.017 143.736 671.5 143.048C670.988 142.355 670.71 141.551 670.664 140.636H672.812C672.858 141.199 673.051 141.685 673.392 142.094C673.733 142.497 674.179 142.81 674.73 143.031C675.281 143.253 675.892 143.364 676.562 143.364C677.312 143.364 677.977 143.233 678.556 142.972C679.136 142.71 679.59 142.347 679.92 141.881C680.25 141.415 680.414 140.875 680.414 140.261C680.414 139.619 680.255 139.054 679.937 138.565C679.619 138.071 679.153 137.685 678.539 137.406C677.926 137.128 677.176 136.989 676.289 136.989H674.892V135.114H676.289C676.983 135.114 677.59 134.989 678.113 134.739C678.642 134.489 679.054 134.136 679.349 133.682C679.65 133.227 679.801 132.693 679.801 132.08C679.801 131.489 679.67 130.974 679.409 130.537C679.147 130.099 678.778 129.759 678.301 129.514C677.829 129.27 677.272 129.148 676.63 129.148C676.028 129.148 675.46 129.259 674.926 129.48C674.397 129.696 673.965 130.011 673.63 130.426C673.295 130.835 673.113 131.33 673.085 131.909H671.039C671.073 130.994 671.349 130.193 671.866 129.506C672.383 128.813 673.059 128.273 673.894 127.886C674.735 127.5 675.659 127.307 676.664 127.307C677.744 127.307 678.67 127.526 679.443 127.963C680.215 128.395 680.809 128.966 681.224 129.676C681.639 130.386 681.846 131.153 681.846 131.977C681.846 132.96 681.588 133.798 681.071 134.492C680.559 135.185 679.863 135.665 678.983 135.932V136.068C680.085 136.25 680.946 136.719 681.565 137.474C682.184 138.224 682.494 139.153 682.494 140.261C682.494 141.21 682.235 142.063 681.718 142.818C681.207 143.568 680.508 144.159 679.622 144.591C678.735 145.023 677.727 145.239 676.596 145.239ZM691.673 145.239C690.389 145.239 689.295 144.889 688.392 144.19C687.488 143.486 686.798 142.466 686.321 141.131C685.843 139.79 685.605 138.17 685.605 136.273C685.605 134.386 685.843 132.776 686.321 131.44C686.804 130.099 687.497 129.077 688.4 128.372C689.309 127.662 690.4 127.307 691.673 127.307C692.946 127.307 694.034 127.662 694.937 128.372C695.846 129.077 696.539 130.099 697.017 131.44C697.5 132.776 697.741 134.386 697.741 136.273C697.741 138.17 697.502 139.79 697.025 141.131C696.548 142.466 695.858 143.486 694.954 144.19C694.051 144.889 692.957 145.239 691.673 145.239ZM691.673 143.364C692.946 143.364 693.934 142.75 694.639 141.523C695.343 140.295 695.696 138.545 695.696 136.273C695.696 134.761 695.534 133.474 695.21 132.412C694.892 131.349 694.431 130.54 693.829 129.983C693.233 129.426 692.514 129.148 691.673 129.148C690.411 129.148 689.426 129.77 688.715 131.014C688.005 132.253 687.65 134.006 687.65 136.273C687.65 137.784 687.809 139.068 688.127 140.125C688.446 141.182 688.903 141.986 689.5 142.537C690.102 143.088 690.826 143.364 691.673 143.364ZM706.536 127.545H708.957L713.798 135.693H714.002L718.843 127.545H721.264L714.957 137.807V145H712.843V137.807L706.536 127.545ZM727.362 145.273C726.1 145.273 725.012 144.994 724.098 144.438C723.188 143.875 722.487 143.091 721.992 142.085C721.504 141.074 721.259 139.898 721.259 138.557C721.259 137.216 721.504 136.034 721.992 135.011C722.487 133.983 723.174 133.182 724.055 132.608C724.941 132.028 725.975 131.739 727.157 131.739C727.839 131.739 728.512 131.852 729.177 132.08C729.842 132.307 730.447 132.676 730.992 133.188C731.538 133.693 731.973 134.364 732.296 135.199C732.62 136.034 732.782 137.063 732.782 138.284V139.136H722.691V137.398H730.737C730.737 136.659 730.589 136 730.294 135.42C730.004 134.841 729.589 134.384 729.049 134.048C728.515 133.713 727.884 133.545 727.157 133.545C726.356 133.545 725.663 133.744 725.078 134.142C724.498 134.534 724.052 135.045 723.74 135.676C723.427 136.307 723.271 136.983 723.271 137.705V138.864C723.271 139.852 723.441 140.69 723.782 141.378C724.129 142.06 724.609 142.58 725.223 142.938C725.836 143.29 726.549 143.466 727.362 143.466C727.89 143.466 728.367 143.392 728.794 143.244C729.225 143.091 729.598 142.864 729.91 142.563C730.223 142.256 730.464 141.875 730.634 141.42L732.578 141.966C732.373 142.625 732.029 143.205 731.546 143.705C731.063 144.199 730.467 144.585 729.757 144.864C729.046 145.136 728.248 145.273 727.362 145.273ZM739.694 145.307C738.865 145.307 738.112 145.151 737.436 144.838C736.759 144.52 736.223 144.063 735.825 143.466C735.427 142.864 735.228 142.136 735.228 141.284C735.228 140.534 735.376 139.926 735.671 139.46C735.967 138.989 736.362 138.619 736.856 138.352C737.35 138.085 737.896 137.886 738.492 137.756C739.095 137.619 739.7 137.511 740.308 137.432C741.103 137.33 741.748 137.253 742.242 137.202C742.742 137.145 743.106 137.051 743.333 136.92C743.566 136.79 743.683 136.563 743.683 136.239V136.17C743.683 135.33 743.453 134.676 742.992 134.21C742.538 133.744 741.848 133.511 740.921 133.511C739.961 133.511 739.208 133.722 738.663 134.142C738.117 134.563 737.734 135.011 737.512 135.489L735.603 134.807C735.944 134.011 736.399 133.392 736.967 132.949C737.541 132.5 738.166 132.188 738.842 132.011C739.524 131.83 740.194 131.739 740.853 131.739C741.274 131.739 741.757 131.79 742.302 131.892C742.853 131.989 743.384 132.19 743.896 132.497C744.413 132.804 744.842 133.267 745.183 133.886C745.524 134.506 745.694 135.335 745.694 136.375V145H743.683V143.227H743.581C743.444 143.511 743.217 143.815 742.899 144.139C742.581 144.463 742.157 144.739 741.629 144.966C741.1 145.193 740.456 145.307 739.694 145.307ZM740.001 143.5C740.796 143.5 741.467 143.344 742.012 143.031C742.563 142.719 742.978 142.315 743.257 141.821C743.541 141.327 743.683 140.807 743.683 140.261V138.42C743.598 138.523 743.41 138.617 743.12 138.702C742.836 138.781 742.507 138.852 742.132 138.915C741.762 138.972 741.402 139.023 741.049 139.068C740.703 139.108 740.421 139.142 740.206 139.17C739.683 139.239 739.194 139.349 738.74 139.503C738.291 139.651 737.927 139.875 737.649 140.176C737.376 140.472 737.24 140.875 737.24 141.386C737.24 142.085 737.498 142.614 738.015 142.972C738.538 143.324 739.2 143.5 740.001 143.5ZM749.365 145V131.909H751.309V133.886H751.445C751.684 133.239 752.115 132.713 752.74 132.31C753.365 131.906 754.07 131.705 754.854 131.705C755.002 131.705 755.186 131.707 755.408 131.713C755.63 131.719 755.797 131.727 755.911 131.739V133.784C755.843 133.767 755.686 133.742 755.442 133.707C755.203 133.668 754.951 133.648 754.684 133.648C754.047 133.648 753.479 133.781 752.979 134.048C752.485 134.31 752.093 134.673 751.803 135.139C751.519 135.599 751.377 136.125 751.377 136.716V145H749.365ZM767.568 134.841L765.761 135.352C765.647 135.051 765.48 134.759 765.258 134.474C765.042 134.185 764.747 133.946 764.372 133.759C763.997 133.571 763.517 133.477 762.931 133.477C762.13 133.477 761.463 133.662 760.929 134.031C760.4 134.395 760.136 134.858 760.136 135.42C760.136 135.92 760.318 136.315 760.681 136.605C761.045 136.895 761.613 137.136 762.386 137.33L764.329 137.807C765.5 138.091 766.372 138.526 766.946 139.111C767.519 139.69 767.806 140.438 767.806 141.352C767.806 142.102 767.59 142.773 767.159 143.364C766.733 143.955 766.136 144.42 765.369 144.761C764.602 145.102 763.71 145.273 762.693 145.273C761.358 145.273 760.252 144.983 759.377 144.403C758.502 143.824 757.948 142.977 757.715 141.864L759.625 141.386C759.806 142.091 760.15 142.619 760.656 142.972C761.167 143.324 761.835 143.5 762.659 143.5C763.596 143.5 764.34 143.301 764.892 142.903C765.448 142.5 765.727 142.017 765.727 141.455C765.727 141 765.568 140.619 765.25 140.313C764.931 140 764.443 139.767 763.784 139.614L761.602 139.102C760.403 138.818 759.522 138.378 758.96 137.781C758.403 137.179 758.125 136.426 758.125 135.523C758.125 134.784 758.332 134.131 758.747 133.563C759.167 132.994 759.738 132.548 760.46 132.224C761.187 131.901 762.011 131.739 762.931 131.739C764.227 131.739 765.244 132.023 765.983 132.591C766.727 133.159 767.255 133.909 767.568 134.841Z" fill="#453F3F"/>
<path d="M676.596 145.239C675.471 145.239 674.468 145.045 673.588 144.659C672.713 144.273 672.017 143.736 671.5 143.048C670.988 142.355 670.71 141.551 670.664 140.636H672.812C672.858 141.199 673.051 141.685 673.392 142.094C673.733 142.497 674.179 142.81 674.73 143.031C675.281 143.253 675.892 143.364 676.562 143.364C677.312 143.364 677.977 143.233 678.556 142.972C679.136 142.71 679.59 142.347 679.92 141.881C680.25 141.415 680.414 140.875 680.414 140.261C680.414 139.619 680.255 139.054 679.937 138.565C679.619 138.071 679.153 137.685 678.539 137.406C677.926 137.128 677.176 136.989 676.289 136.989H674.892V135.114H676.289C676.983 135.114 677.59 134.989 678.113 134.739C678.642 134.489 679.054 134.136 679.349 133.682C679.65 133.227 679.801 132.693 679.801 132.08C679.801 131.489 679.67 130.974 679.409 130.537C679.147 130.099 678.778 129.759 678.301 129.514C677.829 129.27 677.272 129.148 676.63 129.148C676.028 129.148 675.46 129.259 674.926 129.48C674.397 129.696 673.965 130.011 673.63 130.426C673.295 130.835 673.113 131.33 673.085 131.909H671.039C671.073 130.994 671.349 130.193 671.866 129.506C672.383 128.813 673.059 128.273 673.894 127.886C674.735 127.5 675.659 127.307 676.664 127.307C677.744 127.307 678.67 127.526 679.443 127.963C680.215 128.395 680.809 128.966 681.224 129.676C681.639 130.386 681.846 131.153 681.846 131.977C681.846 132.96 681.588 133.798 681.071 134.492C680.559 135.185 679.863 135.665 678.983 135.932V136.068C680.085 136.25 680.946 136.719 681.565 137.474C682.184 138.224 682.494 139.153 682.494 140.261C682.494 141.21 682.235 142.063 681.718 142.818C681.207 143.568 680.508 144.159 679.622 144.591C678.735 145.023 677.727 145.239 676.596 145.239ZM691.673 145.239C690.389 145.239 689.295 144.889 688.392 144.19C687.488 143.486 686.798 142.466 686.321 141.131C685.843 139.79 685.605 138.17 685.605 136.273C685.605 134.386 685.843 132.776 686.321 131.44C686.804 130.099 687.497 129.077 688.4 128.372C689.309 127.662 690.4 127.307 691.673 127.307C692.946 127.307 694.034 127.662 694.937 128.372C695.846 129.077 696.539 130.099 697.017 131.44C697.5 132.776 697.741 134.386 697.741 136.273C697.741 138.17 697.502 139.79 697.025 141.131C696.548 142.466 695.858 143.486 694.954 144.19C694.051 144.889 692.957 145.239 691.673 145.239ZM691.673 143.364C692.946 143.364 693.934 142.75 694.639 141.523C695.343 140.295 695.696 138.545 695.696 136.273C695.696 134.761 695.534 133.474 695.21 132.412C694.892 131.349 694.431 130.54 693.829 129.983C693.233 129.426 692.514 129.148 691.673 129.148C690.411 129.148 689.426 129.77 688.715 131.014C688.005 132.253 687.65 134.006 687.65 136.273C687.65 137.784 687.809 139.068 688.127 140.125C688.446 141.182 688.903 141.986 689.5 142.537C690.102 143.088 690.826 143.364 691.673 143.364ZM706.536 127.545H708.957L713.798 135.693H714.002L718.843 127.545H721.264L714.957 137.807V145H712.843V137.807L706.536 127.545ZM727.362 145.273C726.1 145.273 725.012 144.994 724.098 144.438C723.188 143.875 722.487 143.091 721.992 142.085C721.504 141.074 721.259 139.898 721.259 138.557C721.259 137.216 721.504 136.034 721.992 135.011C722.487 133.983 723.174 133.182 724.055 132.608C724.941 132.028 725.975 131.739 727.157 131.739C727.839 131.739 728.512 131.852 729.177 132.08C729.842 132.307 730.447 132.676 730.992 133.188C731.538 133.693 731.973 134.364 732.296 135.199C732.62 136.034 732.782 137.063 732.782 138.284V139.136H722.691V137.398H730.737C730.737 136.659 730.589 136 730.294 135.42C730.004 134.841 729.589 134.384 729.049 134.048C728.515 133.713 727.884 133.545 727.157 133.545C726.356 133.545 725.663 133.744 725.078 134.142C724.498 134.534 724.052 135.045 723.74 135.676C723.427 136.307 723.271 136.983 723.271 137.705V138.864C723.271 139.852 723.441 140.69 723.782 141.378C724.129 142.06 724.609 142.58 725.223 142.938C725.836 143.29 726.549 143.466 727.362 143.466C727.89 143.466 728.367 143.392 728.794 143.244C729.225 143.091 729.598 142.864 729.91 142.563C730.223 142.256 730.464 141.875 730.634 141.42L732.578 141.966C732.373 142.625 732.029 143.205 731.546 143.705C731.063 144.199 730.467 144.585 729.757 144.864C729.046 145.136 728.248 145.273 727.362 145.273ZM739.694 145.307C738.865 145.307 738.112 145.151 737.436 144.838C736.759 144.52 736.223 144.063 735.825 143.466C735.427 142.864 735.228 142.136 735.228 141.284C735.228 140.534 735.376 139.926 735.671 139.46C735.967 138.989 736.362 138.619 736.856 138.352C737.35 138.085 737.896 137.886 738.492 137.756C739.095 137.619 739.7 137.511 740.308 137.432C741.103 137.33 741.748 137.253 742.242 137.202C742.742 137.145 743.106 137.051 743.333 136.92C743.566 136.79 743.683 136.563 743.683 136.239V136.17C743.683 135.33 743.453 134.676 742.992 134.21C742.538 133.744 741.848 133.511 740.921 133.511C739.961 133.511 739.208 133.722 738.663 134.142C738.117 134.563 737.734 135.011 737.512 135.489L735.603 134.807C735.944 134.011 736.399 133.392 736.967 132.949C737.541 132.5 738.166 132.188 738.842 132.011C739.524 131.83 740.194 131.739 740.853 131.739C741.274 131.739 741.757 131.79 742.302 131.892C742.853 131.989 743.384 132.19 743.896 132.497C744.413 132.804 744.842 133.267 745.183 133.886C745.524 134.506 745.694 135.335 745.694 136.375V145H743.683V143.227H743.581C743.444 143.511 743.217 143.815 742.899 144.139C742.581 144.463 742.157 144.739 741.629 144.966C741.1 145.193 740.456 145.307 739.694 145.307ZM740.001 143.5C740.796 143.5 741.467 143.344 742.012 143.031C742.563 142.719 742.978 142.315 743.257 141.821C743.541 141.327 743.683 140.807 743.683 140.261V138.42C743.598 138.523 743.41 138.617 743.12 138.702C742.836 138.781 742.507 138.852 742.132 138.915C741.762 138.972 741.402 139.023 741.049 139.068C740.703 139.108 740.421 139.142 740.206 139.17C739.683 139.239 739.194 139.349 738.74 139.503C738.291 139.651 737.927 139.875 737.649 140.176C737.376 140.472 737.24 140.875 737.24 141.386C737.24 142.085 737.498 142.614 738.015 142.972C738.538 143.324 739.2 143.5 740.001 143.5ZM749.365 145V131.909H751.309V133.886H751.445C751.684 133.239 752.115 132.713 752.74 132.31C753.365 131.906 754.07 131.705 754.854 131.705C755.002 131.705 755.186 131.707 755.408 131.713C755.63 131.719 755.797 131.727 755.911 131.739V133.784C755.843 133.767 755.686 133.742 755.442 133.707C755.203 133.668 754.951 133.648 754.684 133.648C754.047 133.648 753.479 133.781 752.979 134.048C752.485 134.31 752.093 134.673 751.803 135.139C751.519 135.599 751.377 136.125 751.377 136.716V145H749.365ZM767.568 134.841L765.761 135.352C765.647 135.051 765.48 134.759 765.258 134.474C765.042 134.185 764.747 133.946 764.372 133.759C763.997 133.571 763.517 133.477 762.931 133.477C762.13 133.477 761.463 133.662 760.929 134.031C760.4 134.395 760.136 134.858 760.136 135.42C760.136 135.92 760.318 136.315 760.681 136.605C761.045 136.895 761.613 137.136 762.386 137.33L764.329 137.807C765.5 138.091 766.372 138.526 766.946 139.111C767.519 139.69 767.806 140.438 767.806 141.352C767.806 142.102 767.59 142.773 767.159 143.364C766.733 143.955 766.136 144.42 765.369 144.761C764.602 145.102 763.71 145.273 762.693 145.273C761.358 145.273 760.252 144.983 759.377 144.403C758.502 143.824 757.948 142.977 757.715 141.864L759.625 141.386C759.806 142.091 760.15 142.619 760.656 142.972C761.167 143.324 761.835 143.5 762.659 143.5C763.596 143.5 764.34 143.301 764.892 142.903C765.448 142.5 765.727 142.017 765.727 141.455C765.727 141 765.568 140.619 765.25 140.313C764.931 140 764.443 139.767 763.784 139.614L761.602 139.102C760.403 138.818 759.522 138.378 758.96 137.781C758.403 137.179 758.125 136.426 758.125 135.523C758.125 134.784 758.332 134.131 758.747 133.563C759.167 132.994 759.738 132.548 760.46 132.224C761.187 131.901 762.011 131.739 762.931 131.739C764.227 131.739 765.244 132.023 765.983 132.591C766.727 133.159 767.255 133.909 767.568 134.841Z" fill="black" fill-opacity="0.2"/>
<rect x="475.689" y="136" width="102" height="102" transform="rotate(-45 475.689 136)" stroke="#453F3F" stroke-width="2"/>
<rect x="475.689" y="136" width="102" height="102" transform="rotate(-45 475.689 136)" stroke="black" stroke-opacity="0.2" stroke-width="2"/>
<path d="M499.62 145V143.466L505.382 137.159C506.058 136.42 506.615 135.778 507.052 135.233C507.49 134.682 507.813 134.165 508.024 133.682C508.24 133.193 508.348 132.682 508.348 132.148C508.348 131.534 508.2 131.003 507.904 130.554C507.615 130.105 507.217 129.759 506.711 129.514C506.206 129.27 505.637 129.148 505.007 129.148C504.336 129.148 503.751 129.287 503.251 129.565C502.757 129.838 502.373 130.222 502.1 130.716C501.833 131.21 501.7 131.79 501.7 132.455H499.688C499.688 131.432 499.924 130.534 500.396 129.761C500.867 128.989 501.509 128.386 502.322 127.955C503.14 127.523 504.058 127.307 505.075 127.307C506.098 127.307 507.004 127.523 507.794 127.955C508.583 128.386 509.203 128.969 509.652 129.702C510.1 130.435 510.325 131.25 510.325 132.148C510.325 132.79 510.208 133.418 509.975 134.031C509.748 134.639 509.35 135.318 508.782 136.068C508.22 136.813 507.438 137.722 506.438 138.795L502.518 142.989V143.125H510.632V145H499.62ZM519.845 145.239C518.561 145.239 517.467 144.889 516.563 144.19C515.66 143.486 514.97 142.466 514.492 141.131C514.015 139.79 513.777 138.17 513.777 136.273C513.777 134.386 514.015 132.776 514.492 131.44C514.975 130.099 515.669 129.077 516.572 128.372C517.481 127.662 518.572 127.307 519.845 127.307C521.117 127.307 522.206 127.662 523.109 128.372C524.018 129.077 524.711 130.099 525.188 131.44C525.671 132.776 525.913 134.386 525.913 136.273C525.913 138.17 525.674 139.79 525.197 141.131C524.72 142.466 524.029 143.486 523.126 144.19C522.223 144.889 521.129 145.239 519.845 145.239ZM519.845 143.364C521.117 143.364 522.106 142.75 522.811 141.523C523.515 140.295 523.867 138.545 523.867 136.273C523.867 134.761 523.706 133.474 523.382 132.412C523.063 131.349 522.603 130.54 522.001 129.983C521.404 129.426 520.686 129.148 519.845 129.148C518.583 129.148 517.598 129.77 516.887 131.014C516.177 132.253 515.822 134.006 515.822 136.273C515.822 137.784 515.981 139.068 516.299 140.125C516.617 141.182 517.075 141.986 517.671 142.537C518.274 143.088 518.998 143.364 519.845 143.364ZM534.708 127.545H537.129L541.97 135.693H542.174L547.015 127.545H549.436L543.129 137.807V145H541.015V137.807L534.708 127.545ZM555.534 145.273C554.272 145.273 553.184 144.994 552.269 144.438C551.36 143.875 550.659 143.091 550.164 142.085C549.676 141.074 549.431 139.898 549.431 138.557C549.431 137.216 549.676 136.034 550.164 135.011C550.659 133.983 551.346 133.182 552.227 132.608C553.113 132.028 554.147 131.739 555.329 131.739C556.011 131.739 556.684 131.852 557.349 132.08C558.014 132.307 558.619 132.676 559.164 133.188C559.71 133.693 560.144 134.364 560.468 135.199C560.792 136.034 560.954 137.063 560.954 138.284V139.136H550.863V137.398H558.909C558.909 136.659 558.761 136 558.465 135.42C558.176 134.841 557.761 134.384 557.221 134.048C556.687 133.713 556.056 133.545 555.329 133.545C554.528 133.545 553.835 133.744 553.25 134.142C552.67 134.534 552.224 135.045 551.911 135.676C551.599 136.307 551.443 136.983 551.443 137.705V138.864C551.443 139.852 551.613 140.69 551.954 141.378C552.301 142.06 552.781 142.58 553.394 142.938C554.008 143.29 554.721 143.466 555.534 143.466C556.062 143.466 556.539 143.392 556.965 143.244C557.397 143.091 557.769 142.864 558.082 142.563C558.394 142.256 558.636 141.875 558.806 141.42L560.75 141.966C560.545 142.625 560.201 143.205 559.718 143.705C559.235 144.199 558.639 144.585 557.929 144.864C557.218 145.136 556.42 145.273 555.534 145.273ZM567.866 145.307C567.036 145.307 566.284 145.151 565.608 144.838C564.931 144.52 564.394 144.063 563.997 143.466C563.599 142.864 563.4 142.136 563.4 141.284C563.4 140.534 563.548 139.926 563.843 139.46C564.139 138.989 564.534 138.619 565.028 138.352C565.522 138.085 566.068 137.886 566.664 137.756C567.267 137.619 567.872 137.511 568.48 137.432C569.275 137.33 569.92 137.253 570.414 137.202C570.914 137.145 571.278 137.051 571.505 136.92C571.738 136.79 571.855 136.563 571.855 136.239V136.17C571.855 135.33 571.625 134.676 571.164 134.21C570.71 133.744 570.019 133.511 569.093 133.511C568.133 133.511 567.38 133.722 566.835 134.142C566.289 134.563 565.906 135.011 565.684 135.489L563.775 134.807C564.116 134.011 564.571 133.392 565.139 132.949C565.713 132.5 566.338 132.188 567.014 132.011C567.696 131.83 568.366 131.739 569.025 131.739C569.446 131.739 569.929 131.79 570.474 131.892C571.025 131.989 571.556 132.19 572.068 132.497C572.585 132.804 573.014 133.267 573.355 133.886C573.696 134.506 573.866 135.335 573.866 136.375V145H571.855V143.227H571.752C571.616 143.511 571.389 143.815 571.071 144.139C570.752 144.463 570.329 144.739 569.801 144.966C569.272 145.193 568.627 145.307 567.866 145.307ZM568.173 143.5C568.968 143.5 569.639 143.344 570.184 143.031C570.735 142.719 571.15 142.315 571.429 141.821C571.713 141.327 571.855 140.807 571.855 140.261V138.42C571.769 138.523 571.582 138.617 571.292 138.702C571.008 138.781 570.679 138.852 570.304 138.915C569.934 138.972 569.573 139.023 569.221 139.068C568.875 139.108 568.593 139.142 568.377 139.17C567.855 139.239 567.366 139.349 566.911 139.503C566.463 139.651 566.099 139.875 565.821 140.176C565.548 140.472 565.411 140.875 565.411 141.386C565.411 142.085 565.67 142.614 566.187 142.972C566.71 143.324 567.372 143.5 568.173 143.5ZM577.537 145V131.909H579.48V133.886H579.617C579.855 133.239 580.287 132.713 580.912 132.31C581.537 131.906 582.242 131.705 583.026 131.705C583.174 131.705 583.358 131.707 583.58 131.713C583.801 131.719 583.969 131.727 584.083 131.739V133.784C584.014 133.767 583.858 133.742 583.614 133.707C583.375 133.668 583.122 133.648 582.855 133.648C582.219 133.648 581.651 133.781 581.151 134.048C580.657 134.31 580.264 134.673 579.975 135.139C579.691 135.599 579.549 136.125 579.549 136.716V145H577.537ZM595.74 134.841L593.933 135.352C593.819 135.051 593.652 134.759 593.43 134.474C593.214 134.185 592.919 133.946 592.544 133.759C592.169 133.571 591.688 133.477 591.103 133.477C590.302 133.477 589.634 133.662 589.1 134.031C588.572 134.395 588.308 134.858 588.308 135.42C588.308 135.92 588.49 136.315 588.853 136.605C589.217 136.895 589.785 137.136 590.558 137.33L592.501 137.807C593.671 138.091 594.544 138.526 595.117 139.111C595.691 139.69 595.978 140.438 595.978 141.352C595.978 142.102 595.762 142.773 595.331 143.364C594.904 143.955 594.308 144.42 593.541 144.761C592.774 145.102 591.882 145.273 590.865 145.273C589.529 145.273 588.424 144.983 587.549 144.403C586.674 143.824 586.12 142.977 585.887 141.864L587.796 141.386C587.978 142.091 588.322 142.619 588.828 142.972C589.339 143.324 590.007 143.5 590.831 143.5C591.768 143.5 592.512 143.301 593.063 142.903C593.62 142.5 593.899 142.017 593.899 141.455C593.899 141 593.74 140.619 593.421 140.313C593.103 140 592.615 139.767 591.956 139.614L589.774 139.102C588.575 138.818 587.694 138.378 587.132 137.781C586.575 137.179 586.296 136.426 586.296 135.523C586.296 134.784 586.504 134.131 586.919 133.563C587.339 132.994 587.91 132.548 588.632 132.224C589.359 131.901 590.183 131.739 591.103 131.739C592.399 131.739 593.416 132.023 594.154 132.591C594.899 133.159 595.427 133.909 595.74 134.841Z" fill="#453F3F"/>
<path d="M499.62 145V143.466L505.382 137.159C506.058 136.42 506.615 135.778 507.052 135.233C507.49 134.682 507.813 134.165 508.024 133.682C508.24 133.193 508.348 132.682 508.348 132.148C508.348 131.534 508.2 131.003 507.904 130.554C507.615 130.105 507.217 129.759 506.711 129.514C506.206 129.27 505.637 129.148 505.007 129.148C504.336 129.148 503.751 129.287 503.251 129.565C502.757 129.838 502.373 130.222 502.1 130.716C501.833 131.21 501.7 131.79 501.7 132.455H499.688C499.688 131.432 499.924 130.534 500.396 129.761C500.867 128.989 501.509 128.386 502.322 127.955C503.14 127.523 504.058 127.307 505.075 127.307C506.098 127.307 507.004 127.523 507.794 127.955C508.583 128.386 509.203 128.969 509.652 129.702C510.1 130.435 510.325 131.25 510.325 132.148C510.325 132.79 510.208 133.418 509.975 134.031C509.748 134.639 509.35 135.318 508.782 136.068C508.22 136.813 507.438 137.722 506.438 138.795L502.518 142.989V143.125H510.632V145H499.62ZM519.845 145.239C518.561 145.239 517.467 144.889 516.563 144.19C515.66 143.486 514.97 142.466 514.492 141.131C514.015 139.79 513.777 138.17 513.777 136.273C513.777 134.386 514.015 132.776 514.492 131.44C514.975 130.099 515.669 129.077 516.572 128.372C517.481 127.662 518.572 127.307 519.845 127.307C521.117 127.307 522.206 127.662 523.109 128.372C524.018 129.077 524.711 130.099 525.188 131.44C525.671 132.776 525.913 134.386 525.913 136.273C525.913 138.17 525.674 139.79 525.197 141.131C524.72 142.466 524.029 143.486 523.126 144.19C522.223 144.889 521.129 145.239 519.845 145.239ZM519.845 143.364C521.117 143.364 522.106 142.75 522.811 141.523C523.515 140.295 523.867 138.545 523.867 136.273C523.867 134.761 523.706 133.474 523.382 132.412C523.063 131.349 522.603 130.54 522.001 129.983C521.404 129.426 520.686 129.148 519.845 129.148C518.583 129.148 517.598 129.77 516.887 131.014C516.177 132.253 515.822 134.006 515.822 136.273C515.822 137.784 515.981 139.068 516.299 140.125C516.617 141.182 517.075 141.986 517.671 142.537C518.274 143.088 518.998 143.364 519.845 143.364ZM534.708 127.545H537.129L541.97 135.693H542.174L547.015 127.545H549.436L543.129 137.807V145H541.015V137.807L534.708 127.545ZM555.534 145.273C554.272 145.273 553.184 144.994 552.269 144.438C551.36 143.875 550.659 143.091 550.164 142.085C549.676 141.074 549.431 139.898 549.431 138.557C549.431 137.216 549.676 136.034 550.164 135.011C550.659 133.983 551.346 133.182 552.227 132.608C553.113 132.028 554.147 131.739 555.329 131.739C556.011 131.739 556.684 131.852 557.349 132.08C558.014 132.307 558.619 132.676 559.164 133.188C559.71 133.693 560.144 134.364 560.468 135.199C560.792 136.034 560.954 137.063 560.954 138.284V139.136H550.863V137.398H558.909C558.909 136.659 558.761 136 558.465 135.42C558.176 134.841 557.761 134.384 557.221 134.048C556.687 133.713 556.056 133.545 555.329 133.545C554.528 133.545 553.835 133.744 553.25 134.142C552.67 134.534 552.224 135.045 551.911 135.676C551.599 136.307 551.443 136.983 551.443 137.705V138.864C551.443 139.852 551.613 140.69 551.954 141.378C552.301 142.06 552.781 142.58 553.394 142.938C554.008 143.29 554.721 143.466 555.534 143.466C556.062 143.466 556.539 143.392 556.965 143.244C557.397 143.091 557.769 142.864 558.082 142.563C558.394 142.256 558.636 141.875 558.806 141.42L560.75 141.966C560.545 142.625 560.201 143.205 559.718 143.705C559.235 144.199 558.639 144.585 557.929 144.864C557.218 145.136 556.42 145.273 555.534 145.273ZM567.866 145.307C567.036 145.307 566.284 145.151 565.608 144.838C564.931 144.52 564.394 144.063 563.997 143.466C563.599 142.864 563.4 142.136 563.4 141.284C563.4 140.534 563.548 139.926 563.843 139.46C564.139 138.989 564.534 138.619 565.028 138.352C565.522 138.085 566.068 137.886 566.664 137.756C567.267 137.619 567.872 137.511 568.48 137.432C569.275 137.33 569.92 137.253 570.414 137.202C570.914 137.145 571.278 137.051 571.505 136.92C571.738 136.79 571.855 136.563 571.855 136.239V136.17C571.855 135.33 571.625 134.676 571.164 134.21C570.71 133.744 570.019 133.511 569.093 133.511C568.133 133.511 567.38 133.722 566.835 134.142C566.289 134.563 565.906 135.011 565.684 135.489L563.775 134.807C564.116 134.011 564.571 133.392 565.139 132.949C565.713 132.5 566.338 132.188 567.014 132.011C567.696 131.83 568.366 131.739 569.025 131.739C569.446 131.739 569.929 131.79 570.474 131.892C571.025 131.989 571.556 132.19 572.068 132.497C572.585 132.804 573.014 133.267 573.355 133.886C573.696 134.506 573.866 135.335 573.866 136.375V145H571.855V143.227H571.752C571.616 143.511 571.389 143.815 571.071 144.139C570.752 144.463 570.329 144.739 569.801 144.966C569.272 145.193 568.627 145.307 567.866 145.307ZM568.173 143.5C568.968 143.5 569.639 143.344 570.184 143.031C570.735 142.719 571.15 142.315 571.429 141.821C571.713 141.327 571.855 140.807 571.855 140.261V138.42C571.769 138.523 571.582 138.617 571.292 138.702C571.008 138.781 570.679 138.852 570.304 138.915C569.934 138.972 569.573 139.023 569.221 139.068C568.875 139.108 568.593 139.142 568.377 139.17C567.855 139.239 567.366 139.349 566.911 139.503C566.463 139.651 566.099 139.875 565.821 140.176C565.548 140.472 565.411 140.875 565.411 141.386C565.411 142.085 565.67 142.614 566.187 142.972C566.71 143.324 567.372 143.5 568.173 143.5ZM577.537 145V131.909H579.48V133.886H579.617C579.855 133.239 580.287 132.713 580.912 132.31C581.537 131.906 582.242 131.705 583.026 131.705C583.174 131.705 583.358 131.707 583.58 131.713C583.801 131.719 583.969 131.727 584.083 131.739V133.784C584.014 133.767 583.858 133.742 583.614 133.707C583.375 133.668 583.122 133.648 582.855 133.648C582.219 133.648 581.651 133.781 581.151 134.048C580.657 134.31 580.264 134.673 579.975 135.139C579.691 135.599 579.549 136.125 579.549 136.716V145H577.537ZM595.74 134.841L593.933 135.352C593.819 135.051 593.652 134.759 593.43 134.474C593.214 134.185 592.919 133.946 592.544 133.759C592.169 133.571 591.688 133.477 591.103 133.477C590.302 133.477 589.634 133.662 589.1 134.031C588.572 134.395 588.308 134.858 588.308 135.42C588.308 135.92 588.49 136.315 588.853 136.605C589.217 136.895 589.785 137.136 590.558 137.33L592.501 137.807C593.671 138.091 594.544 138.526 595.117 139.111C595.691 139.69 595.978 140.438 595.978 141.352C595.978 142.102 595.762 142.773 595.331 143.364C594.904 143.955 594.308 144.42 593.541 144.761C592.774 145.102 591.882 145.273 590.865 145.273C589.529 145.273 588.424 144.983 587.549 144.403C586.674 143.824 586.12 142.977 585.887 141.864L587.796 141.386C587.978 142.091 588.322 142.619 588.828 142.972C589.339 143.324 590.007 143.5 590.831 143.5C591.768 143.5 592.512 143.301 593.063 142.903C593.62 142.5 593.899 142.017 593.899 141.455C593.899 141 593.74 140.619 593.421 140.313C593.103 140 592.615 139.767 591.956 139.614L589.774 139.102C588.575 138.818 587.694 138.378 587.132 137.781C586.575 137.179 586.296 136.426 586.296 135.523C586.296 134.784 586.504 134.131 586.919 133.563C587.339 132.994 587.91 132.548 588.632 132.224C589.359 131.901 590.183 131.739 591.103 131.739C592.399 131.739 593.416 132.023 594.154 132.591C594.899 133.159 595.427 133.909 595.74 134.841Z" fill="black" fill-opacity="0.2"/>
<rect x="152" y="136" width="160" height="160" transform="rotate(-45 152 136)" fill="#12EBCA"/>
<path d="M194.417 150V124.96H193.777L189.177 134.4H184.737L190.937 122H198.617V150H194.417ZM214 150.56C210.746 150.56 208.146 149.64 206.2 147.8C204.28 145.933 203.32 143.133 203.32 139.4V132.6C203.32 128.947 204.28 126.173 206.2 124.28C208.146 122.387 210.746 121.44 214 121.44C217.28 121.44 219.88 122.387 221.8 124.28C223.746 126.173 224.72 128.947 224.72 132.6V139.4C224.72 143.133 223.746 145.933 221.8 147.8C219.88 149.64 217.28 150.56 214 150.56ZM214 146.8C216.213 146.8 217.853 146.173 218.92 144.92C219.986 143.64 220.52 141.853 220.52 139.56V132.36C220.52 130.067 219.946 128.307 218.8 127.08C217.653 125.827 216.053 125.2 214 125.2C211.92 125.2 210.32 125.84 209.2 127.12C208.08 128.373 207.52 130.12 207.52 132.36V139.56C207.52 141.907 208.053 143.707 209.12 144.96C210.213 146.187 211.84 146.8 214 146.8ZM246.027 150V139.84L236.307 122H241.187L247.907 134.68H248.507L255.227 122H260.107L250.387 139.84V150H246.027ZM268.758 150.56C266.758 150.56 265.011 150.147 263.518 149.32C262.024 148.467 260.851 147.28 259.998 145.76C259.171 144.213 258.758 142.427 258.758 140.4V139.92C258.758 137.867 259.171 136.08 259.998 134.56C260.824 133.013 261.971 131.827 263.438 131C264.931 130.147 266.651 129.72 268.598 129.72C270.491 129.72 272.144 130.147 273.558 131C274.998 131.827 276.118 132.987 276.918 134.48C277.718 135.973 278.118 137.72 278.118 139.72V141.28H262.958C263.011 143.013 263.584 144.4 264.678 145.44C265.798 146.453 267.184 146.96 268.838 146.96C270.384 146.96 271.544 146.613 272.318 145.92C273.118 145.227 273.731 144.427 274.158 143.52L277.558 145.28C277.184 146.027 276.638 146.813 275.918 147.64C275.224 148.467 274.304 149.16 273.158 149.72C272.011 150.28 270.544 150.56 268.758 150.56ZM262.998 138.12H273.918C273.811 136.627 273.278 135.467 272.318 134.64C271.358 133.787 270.104 133.36 268.558 133.36C267.011 133.36 265.744 133.787 264.758 134.64C263.798 135.467 263.211 136.627 262.998 138.12ZM288.797 150.56C287.384 150.56 286.117 150.32 284.997 149.84C283.904 149.36 283.024 148.653 282.357 147.72C281.717 146.787 281.397 145.653 281.397 144.32C281.397 142.96 281.717 141.84 282.357 140.96C283.024 140.053 283.917 139.373 285.037 138.92C286.184 138.467 287.477 138.24 288.917 138.24H294.917V136.96C294.917 135.813 294.57 134.893 293.877 134.2C293.184 133.507 292.117 133.16 290.677 133.16C289.264 133.16 288.184 133.493 287.437 134.16C286.69 134.827 286.197 135.693 285.957 136.76L282.117 135.52C282.437 134.453 282.944 133.493 283.637 132.64C284.357 131.76 285.304 131.053 286.477 130.52C287.65 129.987 289.064 129.72 290.717 129.72C293.277 129.72 295.29 130.373 296.757 131.68C298.224 132.987 298.957 134.84 298.957 137.24V145.36C298.957 146.16 299.33 146.56 300.077 146.56H301.757V150H298.677C297.744 150 296.984 149.76 296.397 149.28C295.81 148.8 295.517 148.147 295.517 147.32V147.2H294.917C294.704 147.6 294.384 148.067 293.957 148.6C293.53 149.133 292.904 149.6 292.077 150C291.25 150.373 290.157 150.56 288.797 150.56ZM289.397 147.16C291.05 147.16 292.384 146.693 293.397 145.76C294.41 144.8 294.917 143.493 294.917 141.84V141.44H289.157C288.064 141.44 287.184 141.68 286.517 142.16C285.85 142.613 285.517 143.293 285.517 144.2C285.517 145.107 285.864 145.827 286.557 146.36C287.25 146.893 288.197 147.16 289.397 147.16ZM305.363 150V130.28H309.403V132.6H310.043C310.363 131.773 310.87 131.173 311.563 130.8C312.283 130.4 313.163 130.2 314.203 130.2H316.563V133.92H314.043C312.71 133.92 311.616 134.293 310.763 135.04C309.91 135.76 309.483 136.88 309.483 138.4V150H305.363ZM328.082 150.56C325.575 150.56 323.495 150 321.842 148.88C320.189 147.76 319.175 146.067 318.802 143.8L322.642 142.88C322.855 143.973 323.215 144.84 323.722 145.48C324.229 146.12 324.855 146.573 325.602 146.84C326.375 147.107 327.202 147.24 328.082 147.24C329.389 147.24 330.389 146.987 331.082 146.48C331.802 145.973 332.162 145.32 332.162 144.52C332.162 143.72 331.829 143.133 331.162 142.76C330.495 142.387 329.509 142.08 328.202 141.84L326.842 141.6C325.509 141.36 324.295 141.013 323.202 140.56C322.109 140.107 321.242 139.48 320.602 138.68C319.962 137.88 319.642 136.853 319.642 135.6C319.642 133.733 320.335 132.293 321.722 131.28C323.109 130.24 324.949 129.72 327.242 129.72C329.455 129.72 331.269 130.227 332.682 131.24C334.122 132.227 335.055 133.573 335.482 135.28L331.642 136.36C331.402 135.16 330.895 134.32 330.122 133.84C329.349 133.333 328.389 133.08 327.242 133.08C326.122 133.08 325.242 133.293 324.602 133.72C323.962 134.12 323.642 134.693 323.642 135.44C323.642 136.24 323.949 136.827 324.562 137.2C325.202 137.573 326.055 137.853 327.122 138.04L328.522 138.28C329.935 138.52 331.229 138.853 332.402 139.28C333.575 139.707 334.495 140.32 335.162 141.12C335.855 141.92 336.202 142.987 336.202 144.32C336.202 146.293 335.469 147.827 334.002 148.92C332.535 150.013 330.562 150.56 328.082 150.56Z" fill="#1C1B1B"/>
<path d="M376.926 135.647H475.926" stroke="#453F3F" stroke-width="2"/>
<path d="M376.926 135.647H475.926" stroke="black" stroke-opacity="0.2" stroke-width="2"/>
<path d="M619.392 135.647H646.927" stroke="#453F3F" stroke-width="2"/>
<path d="M619.392 135.647H646.927" stroke="black" stroke-opacity="0.2" stroke-width="2"/>
<path d="M174 45L126 3L144 71L4 103L114 135L44 239L126 197L144 261L174 213" stroke="#453F3F" stroke-width="2"/>
<path d="M174 45L126 3L144 71L4 103L114 135L44 239L126 197L144 261L174 213" stroke="black" stroke-opacity="0.2" stroke-width="2"/>
</svg>
